<?xml version="1.0" encoding="UTF-8" standalone="no"?>
<!DOCTYPE svg PUBLIC "-//W3C//DTD SVG 1.1//EN" "http://www.w3.org/Graphics/SVG/1.1/DTD/svg11.dtd">
<svg
  width="100%"
  height="100%"
  viewBox="0 0 240 125"
  version="1.1"
  xmlns="http://www.w3.org/2000/svg"
  xmlns:xlink="http://www.w3.org/1999/xlink"
  xml:space="preserve"
  xmlns:serif="http://www.serif.com/"
  style="
    fill-rule: evenodd;
    clip-rule: evenodd;
    stroke-linejoin: round;
    stroke-miterlimit: 2;
  "
>
  <rect
    id="AutodeskFusion360"
    x="0"
    y="0"
    width="240"
    height="125"
    style="fill: none"
  />
  <path
    class="themed"
    d="M217.476,15.523l-5.772,-0l-6.913,7.719l0,-7.719l-4.846,-0l0.024,19.003l4.822,-0l0,-7.222l6.557,7.222l6.128,-0l-8.836,-9.383l8.836,-9.62Zm-25.344,7.814l-4.419,-0.498c-2.59,-0.285 -3.23,-0.927 -3.23,-1.806c-0,-0.974 1.33,-1.853 3.919,-1.853c2.494,0 3.801,0.927 4.038,2.329l4.751,-0c-0.241,-4.016 -3.612,-6.509 -8.528,-6.509c-5.843,0 -8.789,2.327 -8.789,6.436c0,3.35 1.948,4.918 5.986,5.346l4.49,0.474c1.711,0.19 2.494,0.856 2.494,1.711c0,0.974 -1.14,1.853 -3.896,1.853c-3.183,-0 -4.465,-0.808 -4.679,-2.424l-4.656,0c0.214,4.372 3.064,6.604 9.169,6.604c5.582,-0 8.694,-2.446 8.694,-6.128c-0,-3.207 -1.853,-5.131 -5.344,-5.535Zm-29.955,11.189l15.298,-0l-0,-4.109l-10.452,-0l0,-3.445l8.409,0l-0,-4.133l-8.409,-0l0,-3.207l10.452,-0l-0,-4.109l-15.298,-0l0,19.003Zm-11.401,-19.003l-8.884,-0l0,19.003l8.884,-0c6.818,-0 8.694,-2.542 8.694,-9.645c-0,-6.675 -1.805,-9.358 -8.694,-9.358Zm-0.195,14.895l-3.853,-0l0,-10.786l3.853,-0c3.041,-0 3.943,0.832 3.943,5.249c0.005,4.038 -1.016,5.537 -3.943,5.537Zm-21.848,-15.418c-6.913,0 -10.5,4.251 -10.5,9.976c0,5.749 3.587,10.024 10.5,10.024c6.936,-0 10.522,-4.275 10.522,-10.024c0,-5.725 -3.586,-9.976 -10.522,-9.976Zm-0,15.725c-3.587,-0 -5.559,-2.185 -5.559,-5.749c0,-3.492 1.972,-5.701 5.559,-5.701c3.612,0 5.558,2.209 5.558,5.701c0,3.564 -1.948,5.749 -5.558,5.749Zm-28.363,-11.093l6.128,-0l0,14.894l4.846,-0l0,-14.894l6.105,-0l0,-4.109l-17.079,-0l0,4.109Zm-7.054,7.624c0,2.471 -1.52,3.469 -4.11,3.469c-2.517,-0 -4.156,-1.045 -4.156,-3.469l-0,-11.733l-4.846,-0l0,12.28c0,5.487 4.893,7.197 9.002,7.197c4.086,-0 8.955,-1.71 8.955,-7.197l-0,-12.28l-4.845,-0l0,11.733Zm-27.293,-11.733l-7.293,19.003l5.012,-0l1.273,-3.564l8.141,-0l1.252,3.564l5.177,-0l-7.381,-19.003l-6.181,-0Zm0.434,11.401l2.662,-7.449l2.618,7.451l-5.28,-0.002Zm-43.784,7.603l17.017,-10.585c-0,-0 8.827,-0 8.827,-0c0.283,-0 0.516,0.232 0.516,0.515c-0,0 -0,0.001 -0,0.001c0.014,0.18 -0.081,0.351 -0.241,0.434l-8.358,5.01c-0.543,0.326 -0.733,0.978 -0.733,1.467l-0.009,3.158l10.622,-0l-0,-18.353c-0,-0.001 -0,-0.001 -0,-0.002c-0,-0.357 -0.294,-0.651 -0.652,-0.651c-0.009,-0 -0.018,-0 -0.027,0l-10.135,0l-16.976,10.54l0,8.466l0.149,-0Z"
    style="fill: #f1f1f1; fill-rule: nonzero"
  />
  <g>
    <path
      class="themed"
      d="M124.457,72.455l0,5.828l7.068,0l-0,2.727l-7.068,0l0,8.354l-3.538,-0l0,-19.637l11.782,0l0,2.728l-8.244,-0Zm22.325,1.987l-0,14.922l-2.946,-0l-0.249,-1.652c-1.127,1.297 -2.77,2.035 -4.488,2.018c-0.834,0.011 -1.658,-0.182 -2.4,-0.561c-1.484,-0.76 -2.397,-2.316 -2.338,-3.982l0,-10.745l3.475,-0l0,10.574c0,0.678 0.18,1.192 0.53,1.558c0.359,0.366 0.881,0.545 1.574,0.545c0.624,0 1.224,-0.163 1.824,-0.506c0.611,-0.348 1.138,-0.827 1.542,-1.403l0,-10.768l3.476,-0Zm4.995,14.758c-1.045,-0.358 -1.948,-0.857 -2.72,-1.519l1.66,-1.987c0.654,0.483 1.317,0.849 1.987,1.09c0.713,0.251 1.465,0.375 2.221,0.367c1.885,-0 2.828,-0.546 2.828,-1.629l0,-0.226c0,-0.483 -0.163,-0.873 -0.506,-1.169c-0.605,-0.421 -1.277,-0.737 -1.987,-0.935l-1.878,-0.647c-1.01,-0.307 -1.938,-0.84 -2.712,-1.558c-0.588,-0.611 -0.906,-1.435 -0.88,-2.283l-0,-0.616c-0,-0.779 0.241,-1.48 0.724,-2.088c0.539,-0.646 1.238,-1.14 2.026,-1.434c0.93,-0.356 1.919,-0.531 2.915,-0.514c1.067,-0 2.088,0.156 3.07,0.491c0.927,0.296 1.789,0.767 2.54,1.387l-1.597,1.909c-0.6,-0.413 -1.256,-0.736 -1.949,-0.958c-0.634,-0.174 -1.29,-0.258 -1.948,-0.25c-0.755,0 -1.324,0.133 -1.714,0.405c-0.389,0.273 -0.592,0.616 -0.592,1.021l-0,0.234c-0,0.405 0.171,0.748 0.506,1.028c0.584,0.411 1.228,0.726 1.91,0.936l1.877,0.639c1.007,0.318 1.936,0.843 2.728,1.542c0.634,0.661 0.968,1.556 0.919,2.47l0,0.624c0,1.325 -0.569,2.353 -1.714,3.093c-1.146,0.741 -2.556,1.107 -4.262,1.107c-1.247,-0 -2.4,-0.179 -3.452,-0.53Zm16.784,0.164l-3.475,-0l-0,-12.343l-2.244,-0l-0,-2.579l5.719,-0l0,14.922Zm-3.366,-17.852c-0.405,-0.385 -0.629,-0.923 -0.616,-1.481c0,-0.576 0.203,-1.067 0.624,-1.48c0.386,-0.403 0.922,-0.629 1.48,-0.624c0.577,0 1.075,0.211 1.481,0.608c0.42,0.405 0.623,0.904 0.623,1.504c0,0.577 -0.203,1.067 -0.623,1.473c-0.406,0.397 -0.904,0.6 -1.481,0.6c-0.577,-0 -1.075,-0.203 -1.48,-0.6l-0.008,-0Zm16.917,3.436c1.038,0.568 1.881,1.438 2.415,2.494c0.546,1.067 0.811,2.29 0.811,3.677l-0,1.512c-0,2.151 -0.616,3.873 -1.847,5.166c-1.231,1.294 -2.977,1.933 -5.221,1.933c-2.221,-0 -3.943,-0.647 -5.158,-1.933c-1.216,-1.293 -1.824,-3.015 -1.824,-5.166l0,-1.512c0,-1.387 0.265,-2.61 0.795,-3.677c0.53,-1.068 1.325,-1.894 2.377,-2.494c1.044,-0.6 2.314,-0.896 3.818,-0.896c1.504,-0 2.774,0.296 3.834,0.896Zm-6.452,2.844c-0.592,0.74 -0.896,1.831 -0.896,3.273l-0,1.566c-0,1.481 0.296,2.595 0.888,3.351c0.584,0.763 1.457,1.137 2.618,1.137c1.161,0 2.049,-0.374 2.665,-1.137c0.623,-0.756 0.927,-1.87 0.927,-3.351l0,-1.566c0,-1.426 -0.311,-2.509 -0.927,-3.257c-0.616,-0.748 -1.504,-1.122 -2.665,-1.122c-1.138,-0 -2.01,0.366 -2.61,1.106Zm23.587,-2.423c0.911,0.88 1.363,2.104 1.363,3.67l0,10.325l-3.483,-0l0,-10.045c0,-1.753 -0.779,-2.633 -2.322,-2.633c-1.278,-0 -2.353,0.623 -3.226,1.854l0,10.831l-3.483,0l0,-14.937l2.977,-0l0.226,1.511c1.059,-1.27 2.54,-1.901 4.426,-1.901c1.303,-0.055 2.574,0.421 3.522,1.317l-0,0.008Z"
      style="fill: #f1f1f1; fill-rule: nonzero"
    />
    <g>
      <path
        d="M50.01,55.031l0.016,-0.031l49.971,11.049l5.19,0l0,48.951l-56.447,0c-1.945,-0 -3.545,-1.6 -3.545,-3.545l-0,-4.793l4.823,-51.631l-0.008,0Z"
        style="fill: #933c00; fill-rule: nonzero"
      />
      <path
        d="M100.348,104.091l-50.338,-0l0,-49.06l0.016,-0.031l46.777,0c1.945,0 3.545,1.6 3.545,3.545l0,45.546Z"
        style="fill: #ff6b00; fill-rule: nonzero"
      />
      <path
        d="M39.39,110.504l10.636,-6.413l-0,-49.091l-10.636,6.413l-0,49.091Z"
        style="fill: #ff9548; fill-rule: nonzero"
      />
      <path
        d="M74.642,70.881l-0,6.49l8.945,0l0,4.824l-8.945,-0l-0,10.987l-6.803,-0l-0,-27.195l17.377,0l-0,4.894l-10.574,-0Z"
        style="fill: #fff; fill-rule: nonzero"
      />
    </g>
  </g>
</svg>
